<svg xmlns="http://www.w3.org/2000/svg" viewBox="0 0 265.99 90.96"><defs><style>.cls-1{fill:#fff;}</style></defs><title>Logo_smarthotel360</title><g id="Layer_2" data-name="Layer 2"><g id="Modo_de_aislamiento" data-name="Modo de aislamiento"><rect class="cls-1" x="76.68" width="2.16" height="90.96"/><path class="cls-1" d="M96.46,48.38a4.74,4.74,0,0,0,3.82,1.82c1.81,0,2.59-.7,2.59-1.59a1.36,1.36,0,0,0-.83-1.15c-.32-.2-2.64-.95-3.13-1.15-2.33-.83-3.56-2-3.56-4.08,0-1.35,1.25-4.19,5.11-4.19a5.81,5.81,0,0,1,4.68,2.13l-1.81,1.92a4.77,4.77,0,0,0-2.93-1.23c-1.06,0-1.75.52-1.75,1.29,0,1,1.47,1.38,1.84,1.52s1.24.4,1.81.6c2.67.95,3.88,2.24,3.88,4.31,0,2.67-2,4.57-5.95,4.57-2.9,0-5-1.14-6-2.9Z"/><path class="cls-1" d="M143.78,39.43v-1.3h3.45V48.61c0,1.94,1.2,1.56,1.46,1.53v2.57c-.37.14-3.56,1-4.56-1.84a6.23,6.23,0,0,1-5,2.07A6.86,6.86,0,0,1,134,50.77a7.55,7.55,0,0,1-2.07-5.4A7.43,7.43,0,0,1,134,40a6.88,6.88,0,0,1,5.17-2.18A7.19,7.19,0,0,1,143.78,39.43Zm-1.14,9.09a4.51,4.51,0,0,0,0-6.32,4.29,4.29,0,0,0-3.13-1.26,4.16,4.16,0,0,0-3.07,1.26,4.74,4.74,0,0,0,0,6.32,4.16,4.16,0,0,0,3.07,1.26A4.29,4.29,0,0,0,142.63,48.52Z"/><path class="cls-1" d="M150.53,52.75V38.13h3.42v1.72c1.29-2.69,4.73-2,5-1.92v3.15c-.87-.18-5-1-5,4.24v7.43Z"/><path class="cls-1" d="M161.72,41.26h-1.21V38.13h1.21V33.34h3.45v4.79H168v3.13h-2.86v6.46c0,2.79,2.11,2.37,2.69,2.28v2.78c-4.26.79-6.14-1.07-6.14-4.74Z"/><path class="cls-1" d="M129.16,48.61v-5c0-3.59-1.81-5.8-4.94-5.8-2.27,0-3.82.83-4.65,2.53a4.46,4.46,0,0,0-8-.17V38.13h-3.42V52.75h3.42V44.27c0-2,1.21-3.36,2.81-3.36S117,42.15,117,44.13v8.62h3.42V44.27c0-2,1.18-3.36,2.79-3.36s2.53,1.23,2.53,3.22v5.38c0,4.23,4.51,3.35,4.88,3.2V50.14C130.36,50.17,129.16,50.56,129.16,48.61Z"/><path class="cls-1" d="M170.11,52.75V32.59h4.46v7.53a4.51,4.51,0,0,1,4.22-2.28c3.56,0,5.59,2.3,5.59,6.22V48.3c0,1.66,1.19,1.38,1.44,1.36v3.08c-1.16.21-5.89,1.24-5.89-4.35V44.6c0-1.76-.93-2.84-2.57-2.84a2.76,2.76,0,0,0-2.78,3v8Z"/><path class="cls-1" d="M201,40a7,7,0,0,1,2.32,5.35A7.09,7.09,0,0,1,201,50.77a8.33,8.33,0,0,1-11.23,0,7.17,7.17,0,0,1-2.29-5.38A7.06,7.06,0,0,1,189.78,40,8.25,8.25,0,0,1,201,40Zm-8.23,8a3.76,3.76,0,0,0,5.26,0,3.7,3.7,0,0,0,1.08-2.66A3.59,3.59,0,0,0,198,42.76a3.69,3.69,0,0,0-5.26,0,3.59,3.59,0,0,0-1.08,2.63A3.65,3.65,0,0,0,192.78,48.06Z"/><path class="cls-1" d="M206.48,42.16H205v-4h1.47V32.59h4.34v5.53h3.35v4h-3.35v5.4c0,2.49,2.54,2,3.05,1.88v3.29c-.6.15-7.39,1.52-7.39-5.17Z"/><path class="cls-1" d="M215.81,45.38a7.16,7.16,0,0,1,2.2-5.46,7.77,7.77,0,0,1,5.6-2.09,7.13,7.13,0,0,1,7.4,7.31c0,.49,0,.94-.06,1.37H220.07c.09,1.71,1.57,2.83,3.83,2.83a4.94,4.94,0,0,0,3.51-1.4l2.49,2.37a8.33,8.33,0,0,1-6.2,2.63,8.07,8.07,0,0,1-5.71-2,7.08,7.08,0,0,1-2.17-5.43Zm10.91-1.63c0-1.34-1.4-2.4-3.11-2.4s-3.37,1.06-3.48,2.4Z"/><path class="cls-1" d="M233.49,32.59h4.46v15.1c0,2.42,2.51,1.91,2.81,1.82v3.23c-1,.21-7.27,1.31-7.27-5.08Z"/><path class="cls-1" d="M244.6,39.46a2.19,2.19,0,0,0,2.17,1.14,1.77,1.77,0,0,0,2-1.69c0-1-.8-1.66-2.1-1.66a3.75,3.75,0,0,0-1,.15l-.56-.94,2.7-2.42h-3.61V32.5H250v1.18L247.49,36a.56.56,0,0,1,.16,0,2.86,2.86,0,0,1,2.72,2.89,3.06,3.06,0,0,1-1,2.36,3.67,3.67,0,0,1-2.59.93,3.8,3.8,0,0,1-3.54-1.91Z"/><path class="cls-1" d="M251.44,37.71a5.29,5.29,0,0,1,.42-.92c.15-.25.38-.62.71-1.11l.1-.15c.41-.62,1.08-1.63,2-3h1.9l-2.05,3.05a2.36,2.36,0,0,1,.53-.05,3.17,3.17,0,0,1,2.18.93,3,3,0,0,1,1,2.31,3.28,3.28,0,0,1-1,2.44,3.59,3.59,0,0,1-4.94,0,3.24,3.24,0,0,1-1-2.41A3,3,0,0,1,251.44,37.71Zm2,2.37a1.82,1.82,0,0,0,2.56,0,1.79,1.79,0,0,0,.53-1.29A1.82,1.82,0,0,0,254.73,37a1.83,1.83,0,0,0-1.27,3.11Z"/><path class="cls-1" d="M266,37.24c0,1,0,1.72,0,2a3.16,3.16,0,0,1-1.1,2.08,3.32,3.32,0,0,1-2.27.83,3.36,3.36,0,0,1-2.29-.83,3.14,3.14,0,0,1-1.09-2.08c0-.3,0-1,0-2s0-1.7,0-2a3.14,3.14,0,0,1,1.09-2.08,3.36,3.36,0,0,1,2.29-.83,3.32,3.32,0,0,1,2.27.83,3.16,3.16,0,0,1,1.1,2.08Q266,35.68,266,37.24Zm-1.66,0c0-1,0-1.57,0-1.8a1.6,1.6,0,0,0-.57-1.12,1.65,1.65,0,0,0-1.16-.45,1.7,1.7,0,0,0-1.17.45,1.64,1.64,0,0,0-.56,1.12c0,.23,0,.83,0,1.8s0,1.61,0,1.84a1.73,1.73,0,0,0,3.43,0Q264.33,38.73,264.33,37.24Z"/><path class="cls-1" d="M32.39,57.38v6.87h1.42a4.14,4.14,0,0,0,4.14-4.14V56a5.51,5.51,0,0,0-5.51-5.51H16.27a11,11,0,0,1-11-11v-4A9.89,9.89,0,0,1,8,28.55a9.59,9.59,0,0,1,6.94-2.94h1.74V21.15a1.1,1.1,0,0,0-1.1-1.1H13.79A13.79,13.79,0,0,0,0,33.83V68.41a1.1,1.1,0,0,0,1.1,1.1H15.53a1.1,1.1,0,0,0,1.1-1.1v-11A1.38,1.38,0,0,1,18,56H31A1.38,1.38,0,0,1,32.39,57.38Z"/><path class="cls-1" d="M35.24,25.86H33.49a1.1,1.1,0,0,0-1.1,1.1v11.3a1.1,1.1,0,0,1-1.1,1.1H17.74a1.1,1.1,0,0,1-1.1-1.1V31.12H14.89a4,4,0,0,0-1.95.48,4.16,4.16,0,0,0-2.18,3.66v4.16a5.51,5.51,0,0,0,5.51,5.51H32.43a11,11,0,0,1,11,11v4.16a9.65,9.65,0,0,1-9.65,9.65H32.39v4.46a1.1,1.1,0,0,0,1.1,1.1h1.75A13.79,13.79,0,0,0,49,61.54V39.65A13.79,13.79,0,0,0,35.24,25.86Z"/><path class="cls-1" d="M41.89,21.92h0L42,22l.32.11a20.12,20.12,0,0,1,7.38,4.71,1.13,1.13,0,0,0,1.56.05L53,25.29a1.14,1.14,0,0,0,.12-1.59c-4-4.76-11-7.83-19.23-7.83h-.39A1.13,1.13,0,0,0,32.37,17V19.4a1.13,1.13,0,0,0,1.11,1.13A28.48,28.48,0,0,1,41.89,21.92Z"/></g></g></svg>